<svg width="1123" height="536" viewBox="0 0 1123 536" fill="none" xmlns="http://www.w3.org/2000/svg">
<g filter="url(#filter0_d_503_122)">
<circle cx="268" cy="268" r="250" fill="url(#paint0_angular_503_122)"/>
<circle cx="268" cy="268" r="187.5" fill="#F2FAFB"/>
<path d="M394.071 250.143H385.143V214.429H367.286V250.143H349.429V214.429H331.571V250.143H322.643C320.275 250.143 318.004 251.084 316.329 252.758C314.655 254.432 313.714 256.703 313.714 259.071V294.786C313.728 305.072 317.287 315.039 323.793 323.007C330.299 330.975 339.353 336.456 349.429 338.527V366.214C349.429 368.582 348.488 370.853 346.813 372.528C345.139 374.202 342.868 375.143 340.5 375.143H179.786C177.418 375.143 175.147 374.202 173.472 372.528C171.798 370.853 170.857 368.582 170.857 366.214C170.857 363.846 171.798 361.575 173.472 359.901C175.147 358.226 177.418 357.286 179.786 357.286H224.429C231.533 357.286 238.346 354.464 243.369 349.44C248.392 344.417 251.214 337.604 251.214 330.5C251.214 323.396 248.392 316.583 243.369 311.56C238.346 306.536 231.533 303.714 224.429 303.714H179.786C177.418 303.714 175.147 302.774 173.472 301.099C171.798 299.425 170.857 297.154 170.857 294.786C170.857 292.418 171.798 290.147 173.472 288.472C175.147 286.798 177.418 285.857 179.786 285.857H224.429C231.53 285.85 238.339 283.026 243.361 278.004C248.383 272.982 251.207 266.173 251.214 259.071V223.357H260.143C269.611 223.345 278.688 219.579 285.384 212.884C292.079 206.188 295.845 197.111 295.857 187.643V160.857H269.071C259.93 160.871 251.145 164.408 244.545 170.732C239.919 162.34 233.129 155.34 224.88 150.463C216.631 145.585 207.226 143.008 197.643 143H170.857V169.786C170.874 183.989 176.523 197.605 186.566 207.648C196.609 217.691 210.226 223.341 224.429 223.357H233.357V259.071C233.357 261.439 232.416 263.71 230.742 265.385C229.068 267.059 226.797 268 224.429 268H179.786C172.682 268 165.869 270.822 160.845 275.845C155.822 280.869 153 287.682 153 294.786C153 301.89 155.822 308.703 160.845 313.726C165.869 318.749 172.682 321.571 179.786 321.571H224.429C226.797 321.571 229.068 322.512 230.742 324.187C232.416 325.861 233.357 328.132 233.357 330.5C233.357 332.868 232.416 335.139 230.742 336.813C229.068 338.488 226.797 339.429 224.429 339.429H179.786C172.682 339.429 165.869 342.251 160.845 347.274C155.822 352.297 153 359.11 153 366.214C153 373.318 155.822 380.131 160.845 385.155C165.869 390.178 172.682 393 179.786 393H340.5C347.602 392.993 354.411 390.169 359.433 385.147C364.454 380.125 367.279 373.316 367.286 366.214V338.527C377.362 336.456 386.416 330.975 392.921 323.007C399.427 315.039 402.987 305.072 403 294.786V259.071C403 256.703 402.059 254.432 400.385 252.758C398.71 251.084 396.439 250.143 394.071 250.143ZM251.214 196.571C251.219 191.837 253.102 187.298 256.45 183.95C259.798 180.602 264.337 178.719 269.071 178.714H278V187.643C277.995 192.377 276.112 196.917 272.765 200.265C269.417 203.612 264.877 205.495 260.143 205.5H251.214V196.571ZM224.429 205.5C214.96 205.488 205.883 201.722 199.188 195.026C192.493 188.331 188.726 179.254 188.714 169.786V160.857H197.643C207.111 160.869 216.188 164.635 222.884 171.331C229.579 178.026 233.345 187.103 233.357 196.571V205.5H224.429ZM385.143 294.786C385.143 301.89 382.321 308.703 377.298 313.726C372.274 318.749 365.461 321.571 358.357 321.571C351.253 321.571 344.44 318.749 339.417 313.726C334.393 308.703 331.571 301.89 331.571 294.786V268H385.143V294.786Z" fill="#CCCCCC"/>
</g>
<g filter="url(#filter1_bdd_503_122)">
<path d="M619.3 378.1C609.9 378.1 601.4 376.4 593.8 373C586.4 369.4 580.5 364.5 576.1 358.3C571.9 351.9 569.8 344.4 569.8 335.8C569.8 319.4 577.8 306.9 593.8 298.3C610 289.7 636.5 284 673.3 281.2C673.1 275.2 671.7 269.7 669.1 264.7C666.7 259.7 662.8 255.8 657.4 253C652.2 250 645.3 248.5 636.7 248.5C630.7 248.5 624.8 249.3 619 250.9C613.2 252.3 607.6 254.3 602.2 256.9C596.8 259.5 591.7 262.2 586.9 265L575.8 244.9C581.2 241.7 587.4 238.5 594.4 235.3C601.4 231.9 608.9 229.2 616.9 227.2C625.1 225.2 633.4 224.2 641.8 224.2C655.4 224.2 666.7 226.7 675.7 231.7C684.7 236.7 691.5 243.8 696.1 253C700.7 262.2 703 273.3 703 286.3V374.5H678.7L676.3 355.6H675.4C667.6 361.6 658.8 366.9 649 371.5C639.2 375.9 629.3 378.1 619.3 378.1ZM627.7 354.4C635.5 354.4 643.2 352.7 650.8 349.3C658.4 345.9 665.9 341.1 673.3 334.9V300.1C654.1 301.5 639 303.7 628 306.7C617.2 309.7 609.6 313.5 605.2 318.1C600.8 322.5 598.6 327.7 598.6 333.7C598.6 338.5 599.9 342.5 602.5 345.7C605.3 348.7 608.9 350.9 613.3 352.3C617.7 353.7 622.5 354.4 627.7 354.4ZM825.883 378.1C811.083 378.1 797.583 375.1 785.383 369.1C773.383 363.1 763.883 354.3 756.883 342.7C749.883 331.1 746.383 317.2 746.383 301C746.383 285 749.883 271.3 756.883 259.9C764.083 248.5 773.383 239.7 784.783 233.5C796.183 227.3 808.383 224.2 821.383 224.2C835.783 224.2 847.983 227.2 857.983 233.2C867.983 239 875.583 247.1 880.783 257.5C886.183 267.7 888.883 279.7 888.883 293.5C888.883 296.5 888.783 299.5 888.583 302.5C888.383 305.3 888.083 307.7 887.683 309.7H767.083V287.8H869.083L862.483 295C862.483 279.2 858.883 267.4 851.683 259.6C844.483 251.6 834.683 247.6 822.283 247.6C813.683 247.6 805.783 249.7 798.583 253.9C791.583 257.9 785.983 263.9 781.783 271.9C777.583 279.7 775.483 289.4 775.483 301C775.483 313 777.783 323 782.383 331C787.183 338.8 793.583 344.7 801.583 348.7C809.783 352.7 819.183 354.7 829.783 354.7C837.983 354.7 845.483 353.6 852.283 351.4C859.083 349 865.783 345.8 872.383 341.8L882.883 360.7C875.483 365.7 866.983 369.9 857.383 373.3C847.783 376.5 837.283 378.1 825.883 378.1ZM1027.67 378.1C1011.47 378.1 999.066 373.4 990.466 364C981.866 354.4 977.566 340.8 977.566 323.2V185.8H928.666V161.8H1007.27V325C1007.27 335.2 1009.87 342.6 1015.07 347.2C1020.27 351.6 1026.77 353.8 1034.57 353.8C1038.57 353.8 1042.67 353.3 1046.87 352.3C1051.27 351.3 1056.07 349.7 1061.27 347.5L1068.47 369.7C1061.47 372.1 1054.97 374.1 1048.97 375.7C1043.17 377.3 1036.07 378.1 1027.67 378.1Z" fill="white"/>
</g>
<defs>
<filter id="filter0_d_503_122" x="0" y="0" width="536" height="536" filterUnits="userSpaceOnUse" color-interpolation-filters="sRGB">
<feFlood flood-opacity="0" result="BackgroundImageFix"/>
<feColorMatrix in="SourceAlpha" type="matrix" values="0 0 0 0 0 0 0 0 0 0 0 0 0 0 0 0 0 0 127 0" result="hardAlpha"/>
<feOffset/>
<feGaussianBlur stdDeviation="9"/>
<feComposite in2="hardAlpha" operator="out"/>
<feColorMatrix type="matrix" values="0 0 0 0 1 0 0 0 0 1 0 0 0 0 1 0 0 0 0.35 0"/>
<feBlend mode="normal" in2="BackgroundImageFix" result="effect1_dropShadow_503_122"/>
<feBlend mode="normal" in="SourceGraphic" in2="effect1_dropShadow_503_122" result="shape"/>
</filter>
<filter id="filter1_bdd_503_122" x="515.8" y="111.8" width="606.666" height="324.3" filterUnits="userSpaceOnUse" color-interpolation-filters="sRGB">
<feFlood flood-opacity="0" result="BackgroundImageFix"/>
<feGaussianBlur in="BackgroundImageFix" stdDeviation="2"/>
<feComposite in2="SourceAlpha" operator="in" result="effect1_backgroundBlur_503_122"/>
<feColorMatrix in="SourceAlpha" type="matrix" values="0 0 0 0 0 0 0 0 0 0 0 0 0 0 0 0 0 0 127 0" result="hardAlpha"/>
<feOffset dy="4"/>
<feGaussianBlur stdDeviation="27"/>
<feComposite in2="hardAlpha" operator="out"/>
<feColorMatrix type="matrix" values="0 0 0 0 0 0 0 0 0 0 0 0 0 0 0 0 0 0 0.25 0"/>
<feBlend mode="normal" in2="effect1_backgroundBlur_503_122" result="effect2_dropShadow_503_122"/>
<feColorMatrix in="SourceAlpha" type="matrix" values="0 0 0 0 0 0 0 0 0 0 0 0 0 0 0 0 0 0 127 0" result="hardAlpha"/>
<feOffset dy="2"/>
<feGaussianBlur stdDeviation="1"/>
<feComposite in2="hardAlpha" operator="out"/>
<feColorMatrix type="matrix" values="0 0 0 0 0 0 0 0 0 0 0 0 0 0 0 0 0 0 0.25 0"/>
<feBlend mode="normal" in2="effect2_dropShadow_503_122" result="effect3_dropShadow_503_122"/>
<feBlend mode="normal" in="SourceGraphic" in2="effect3_dropShadow_503_122" result="shape"/>
</filter>
<radialGradient id="paint0_angular_503_122" cx="0" cy="0" r="1" gradientUnits="userSpaceOnUse" gradientTransform="translate(268 268) scale(250)">
<stop offset="0.00381137" stop-color="#9277FA"/>
<stop offset="0.251315" stop-color="#5BC7D6"/>
<stop offset="0.493418" stop-color="#8C8EF3"/>
<stop offset="0.758225" stop-color="#78B2B1"/>
<stop offset="0.875965" stop-color="#8098EF"/>
</radialGradient>
</defs>
</svg>
