<svg width="52" height="52" viewBox="0 0 52 52" fill="none" xmlns="http://www.w3.org/2000/svg">
<path d="M17.0714 29.5714H34.9286M26 51C22.717 51 19.4661 50.3534 16.4329 49.097C13.3998 47.8406 10.6438 45.9991 8.32233 43.6777C6.00087 41.3562 4.15938 38.6002 2.90301 35.5671C1.64664 32.5339 1 29.283 1 26C1 22.717 1.64664 19.4661 2.90301 16.4329C4.15938 13.3998 6.00087 10.6438 8.32233 8.32233C10.6438 6.00087 13.3998 4.15938 16.4329 2.90301C19.4661 1.64664 22.717 1 26 1C32.6304 1 38.9893 3.63392 43.6777 8.32233C48.3661 13.0107 51 19.3696 51 26C51 32.6304 48.3661 38.9893 43.6777 43.6777C38.9893 48.3661 32.6304 51 26 51ZM26 51V22.4286C26 20.5342 26.7526 18.7174 28.0921 17.3778C29.4316 16.0383 31.2485 15.2857 33.1429 15.2857H34.9286L26 51Z" stroke="black"/>
</svg>
