<svg width="52" height="52" viewBox="0 0 52 52" fill="none" xmlns="http://www.w3.org/2000/svg">
<path d="M38.5 11.7143H42.0714H38.5ZM15.2857 1H36.7143C40.5031 1 44.1367 2.5051 46.8158 5.18419C49.4949 7.86328 51 11.4969 51 15.2857V36.7143C51 40.5031 49.4949 44.1367 46.8158 46.8158C44.1367 49.4949 40.5031 51 36.7143 51H15.2857C11.4969 51 7.86328 49.4949 5.18419 46.8158C2.5051 44.1367 1 40.5031 1 36.7143V15.2857C1 11.4969 2.5051 7.86328 5.18419 5.18419C7.86328 2.5051 11.4969 1 15.2857 1V1ZM26 36.7143C23.1584 36.7143 20.4332 35.5855 18.4239 33.5761C16.4145 31.5668 15.2857 28.8416 15.2857 26C15.2857 23.1584 16.4145 20.4332 18.4239 18.4239C20.4332 16.4145 23.1584 15.2857 26 15.2857C28.8416 15.2857 31.5668 16.4145 33.5761 18.4239C35.5855 20.4332 36.7143 23.1584 36.7143 26C36.7143 28.8416 35.5855 31.5668 33.5761 33.5761C31.5668 35.5855 28.8416 36.7143 26 36.7143Z" stroke="black"/>
</svg>
