<svg width="52" height="52" viewBox="0 0 52 52" fill="none" xmlns="http://www.w3.org/2000/svg">
<path d="M15.2857 47.4286L26 22.4286L15.2857 47.4286ZM14.4429 33.1429C12.6826 31.1805 11.7106 28.6362 11.7143 26V24.2143C11.7143 20.8991 13.0312 17.7197 15.3755 15.3755C17.7197 13.0312 20.8991 11.7143 24.2143 11.7143H27.7857C31.1009 11.7143 34.2803 13.0312 36.6245 15.3755C38.9688 17.7197 40.2857 20.8991 40.2857 24.2143V26C40.2857 28.8416 39.1569 31.5668 37.1476 33.5761C35.1383 35.5855 32.413 36.7143 29.5714 36.7143C28.0116 36.7141 26.4915 36.2232 25.2262 35.3111C23.9609 34.399 23.0146 33.1119 22.5214 31.6321L22.4286 31.3571L14.4429 33.1429ZM26 51C22.717 51 19.4661 50.3534 16.4329 49.097C13.3998 47.8406 10.6438 45.9991 8.32233 43.6777C6.00087 41.3562 4.15938 38.6002 2.90301 35.5671C1.64664 32.5339 1 29.283 1 26C1 22.717 1.64664 19.4661 2.90301 16.4329C4.15938 13.3998 6.00087 10.6438 8.32233 8.32233C10.6438 6.00087 13.3998 4.15938 16.4329 2.90301C19.4661 1.64664 22.717 1 26 1C32.6304 1 38.9893 3.63392 43.6777 8.32233C48.3661 13.0107 51 19.3696 51 26C51 32.6304 48.3661 38.9893 43.6777 43.6777C38.9893 48.3661 32.6304 51 26 51Z" stroke="black"/>
</svg>
